# Blender v3.2.0 OBJ File: 'chao.blend'
# www.blender.org
mtllib chao.mtl
o Cubo.000_Cubo.001
v -9.670055 -0.117862 1.493005
v -9.670055 -0.159645 -11.593616
v -9.670055 -0.371846 -11.592938
v -9.670055 -0.330063 1.493683
v 15.167583 -0.371846 -11.592938
v 15.167583 -0.330063 1.493683
v 15.167583 -0.159645 -11.593616
v 15.167583 -0.117862 1.493005
vt 0.375000 0.000000
vt 0.625000 0.000000
vt 0.625000 0.250000
vt 0.375000 0.250000
vt 0.625000 0.500000
vt 0.375000 0.500000
vt 0.625000 0.750000
vt 0.375000 0.750000
vt 0.625000 1.000000
vt 0.375000 1.000000
vt 0.125000 0.500000
vt 0.125000 0.750000
vt 0.875000 0.500000
vt 0.875000 0.750000
vn -1.0000 0.0000 0.0000
vn 0.0000 -1.0000 0.0032
vn 1.0000 0.0000 0.0000
vn 0.0000 1.0000 -0.0032
vn 0.0000 0.0032 1.0000
vn 0.0000 -0.0032 -1.0000
usemtl None.005
s 1
f 1/1/1 2/2/1 3/3/1 4/4/1
f 4/4/2 3/3/2 5/5/2 6/6/2
f 6/6/3 5/5/3 7/7/3 8/8/3
f 8/8/4 7/7/4 2/9/4 1/10/4
f 4/11/5 6/6/5 8/8/5 1/12/5
f 5/5/6 3/13/6 2/14/6 7/7/6
