# Blender v3.2.0 OBJ File: 'enfeite_janela.blend1'
# www.blender.org
mtllib enfeite_janela2.mtl
o Cubo_Cubo.003
v 13.445798 0.635883 -2.472296
v 13.445798 2.516461 -2.472296
v 13.445798 0.635883 -2.684148
v 13.445798 2.442492 -2.684148
v 13.322025 0.635883 -2.472296
v 13.322025 2.516461 -2.472296
v 13.322025 0.635883 -2.684148
v 13.322025 2.442492 -2.684148
vt 0.375000 0.000000
vt 0.375000 0.250000
vt 0.625000 0.250000
vt 0.625000 0.000000
vt 0.375000 0.500000
vt 0.625000 0.500000
vt 0.375000 0.750000
vt 0.625000 0.750000
vt 0.375000 1.000000
vt 0.625000 1.000000
vt 0.125000 0.500000
vt 0.125000 0.750000
vt 0.875000 0.750000
vt 0.875000 0.500000
vn 1.0000 0.0000 0.0000
vn 0.0000 0.0000 -1.0000
vn -1.0000 0.0000 0.0000
vn 0.0000 0.0000 1.0000
vn 0.0000 -1.0000 0.0000
vn 0.0000 0.9441 -0.3296
usemtl Materiais.003
s off
f 1/1/1 3/2/1 4/3/1 2/4/1
f 3/2/2 7/5/2 8/6/2 4/3/2
f 7/5/3 5/7/3 6/8/3 8/6/3
f 5/7/4 1/9/4 2/10/4 6/8/4
f 3/11/5 1/12/5 5/7/5 7/5/5
f 8/6/6 6/8/6 2/13/6 4/14/6
o Cubo.001_Cubo.004
v 13.445798 0.635883 -0.694089
v 13.445798 2.527572 -0.694089
v 13.445798 0.635883 -0.905941
v 13.445798 2.442492 -0.905941
v 13.322025 0.635883 -0.694089
v 13.322025 2.527572 -0.694089
v 13.322025 0.635883 -0.905941
v 13.322025 2.442492 -0.905941
vt 0.375000 0.000000
vt 0.375000 0.250000
vt 0.625000 0.250000
vt 0.625000 0.000000
vt 0.375000 0.500000
vt 0.625000 0.500000
vt 0.375000 0.750000
vt 0.625000 0.750000
vt 0.375000 1.000000
vt 0.625000 1.000000
vt 0.125000 0.500000
vt 0.125000 0.750000
vt 0.875000 0.750000
vt 0.875000 0.500000
vn 1.0000 0.0000 0.0000
vn 0.0000 0.0000 -1.0000
vn -1.0000 0.0000 0.0000
vn 0.0000 0.0000 1.0000
vn 0.0000 -1.0000 0.0000
vn 0.0000 0.9280 -0.3727
usemtl Materiais.001
s off
f 9/15/7 11/16/7 12/17/7 10/18/7
f 11/16/8 15/19/8 16/20/8 12/17/8
f 15/19/9 13/21/9 14/22/9 16/20/9
f 13/21/10 9/23/10 10/24/10 14/22/10
f 11/25/11 9/26/11 13/21/11 15/19/11
f 16/20/12 14/22/12 10/27/12 12/28/12
o Cubo.002_Cubo.005
v 13.445798 0.622822 -1.842235
v 13.445798 2.429431 -1.842235
v 13.445798 0.622822 -2.054087
v 13.445798 2.514510 -2.054087
v 13.322025 0.622822 -1.842235
v 13.322025 2.429431 -1.842235
v 13.322025 0.622822 -2.054087
v 13.322025 2.514510 -2.054087
vt 0.375000 0.000000
vt 0.375000 0.250000
vt 0.625000 0.250000
vt 0.625000 0.000000
vt 0.375000 0.500000
vt 0.625000 0.500000
vt 0.375000 0.750000
vt 0.625000 0.750000
vt 0.375000 1.000000
vt 0.625000 1.000000
vt 0.125000 0.500000
vt 0.125000 0.750000
vt 0.875000 0.750000
vt 0.875000 0.500000
vn 1.0000 0.0000 0.0000
vn 0.0000 0.0000 -1.0000
vn -1.0000 0.0000 0.0000
vn 0.0000 0.0000 1.0000
vn 0.0000 -1.0000 0.0000
vn 0.0000 0.9280 0.3727
usemtl Materiais.002
s off
f 17/29/13 19/30/13 20/31/13 18/32/13
f 19/30/14 23/33/14 24/34/14 20/31/14
f 23/33/15 21/35/15 22/36/15 24/34/15
f 21/35/16 17/37/16 18/38/16 22/36/16
f 19/39/17 17/40/17 21/35/17 23/33/17
f 24/34/18 22/36/18 18/41/18 20/42/18
o Cubo.003_Cubo.006
v 13.445798 0.635883 -3.668519
v 13.445798 2.442492 -3.668519
v 13.445798 0.635883 -3.880371
v 13.445798 2.507833 -3.890172
v 13.322025 0.635883 -3.668519
v 13.322025 2.442492 -3.668519
v 13.322025 0.635883 -3.880371
v 13.322025 2.507833 -3.890172
vt 0.375000 0.000000
vt 0.375000 0.250000
vt 0.625000 0.250000
vt 0.625000 0.000000
vt 0.375000 0.500000
vt 0.625000 0.500000
vt 0.375000 0.750000
vt 0.625000 0.750000
vt 0.375000 1.000000
vt 0.625000 1.000000
vt 0.125000 0.500000
vt 0.125000 0.750000
vt 0.875000 0.750000
vt 0.875000 0.500000
vn 1.0000 0.0000 0.0000
vn 0.0000 -0.0052 -1.0000
vn -1.0000 0.0000 0.0000
vn 0.0000 0.0000 1.0000
vn 0.0000 -1.0000 0.0000
vn 0.0000 0.9592 0.2828
usemtl Materiais.004
s off
f 25/43/19 27/44/19 28/45/19 26/46/19
f 27/44/20 31/47/20 32/48/20 28/45/20
f 31/47/21 29/49/21 30/50/21 32/48/21
f 29/49/22 25/51/22 26/52/22 30/50/22
f 27/53/23 25/54/23 29/49/23 31/47/23
f 32/48/24 30/50/24 26/55/24 28/56/24
o Cubo.006_Cubo.009
v 13.445798 0.635883 -9.781121
v 13.445798 2.442492 -9.781121
v 13.445798 0.635883 -9.992974
v 13.445798 2.513061 -9.992974
v 13.322025 0.635883 -9.781121
v 13.322025 2.442492 -9.781121
v 13.322025 0.635883 -9.992974
v 13.322025 2.513061 -9.992974
vt 0.375000 0.000000
vt 0.375000 0.250000
vt 0.625000 0.250000
vt 0.625000 0.000000
vt 0.375000 0.500000
vt 0.625000 0.500000
vt 0.375000 0.750000
vt 0.625000 0.750000
vt 0.375000 1.000000
vt 0.625000 1.000000
vt 0.125000 0.500000
vt 0.125000 0.750000
vt 0.875000 0.750000
vt 0.875000 0.500000
vn 1.0000 0.0000 0.0000
vn 0.0000 0.0000 -1.0000
vn -1.0000 0.0000 0.0000
vn 0.0000 0.0000 1.0000
vn 0.0000 -1.0000 0.0000
vn 0.0000 0.9487 0.3160
usemtl Materiais.009
s off
f 33/57/25 35/58/25 36/59/25 34/60/25
f 35/58/26 39/61/26 40/62/26 36/59/26
f 39/61/27 37/63/27 38/64/27 40/62/27
f 37/63/28 33/65/28 34/66/28 38/64/28
f 35/67/29 33/68/29 37/63/29 39/61/29
f 40/62/30 38/64/30 34/69/30 36/70/30
o Cubo.007_Cubo.010
v 13.445798 0.635883 -7.855358
v 13.445798 2.442492 -7.855358
v 13.445798 0.635883 -8.067210
v 13.445798 2.513061 -8.067210
v 13.322025 0.635883 -7.855358
v 13.322025 2.442492 -7.855358
v 13.322025 0.635883 -8.067210
v 13.322025 2.513061 -8.067210
vt 0.375000 0.000000
vt 0.375000 0.250000
vt 0.625000 0.250000
vt 0.625000 0.000000
vt 0.375000 0.500000
vt 0.625000 0.500000
vt 0.375000 0.750000
vt 0.625000 0.750000
vt 0.375000 1.000000
vt 0.625000 1.000000
vt 0.125000 0.500000
vt 0.125000 0.750000
vt 0.875000 0.750000
vt 0.875000 0.500000
vn 1.0000 0.0000 0.0000
vn 0.0000 0.0000 -1.0000
vn -1.0000 0.0000 0.0000
vn 0.0000 0.0000 1.0000
vn 0.0000 -1.0000 0.0000
vn 0.0000 0.9487 0.3160
usemtl Materiais.006
s off
f 41/71/31 43/72/31 44/73/31 42/74/31
f 43/72/32 47/75/32 48/76/32 44/73/32
f 47/75/33 45/77/33 46/78/33 48/76/33
f 45/77/34 41/79/34 42/80/34 46/78/34
f 43/81/35 41/82/35 45/77/35 47/75/35
f 48/76/36 46/78/36 42/83/36 44/84/36
o Cubo.008_Cubo.011
v 13.445798 0.635883 -6.553955
v 13.445798 2.513061 -6.553955
v 13.445798 0.635883 -6.765807
v 13.445798 2.442492 -6.765807
v 13.322025 0.635883 -6.553955
v 13.322025 2.513061 -6.553955
v 13.322025 0.635883 -6.765807
v 13.322025 2.442492 -6.765807
vt 0.375000 0.000000
vt 0.375000 0.250000
vt 0.625000 0.250000
vt 0.625000 0.000000
vt 0.375000 0.500000
vt 0.625000 0.500000
vt 0.375000 0.750000
vt 0.625000 0.750000
vt 0.375000 1.000000
vt 0.625000 1.000000
vt 0.125000 0.500000
vt 0.125000 0.750000
vt 0.875000 0.750000
vt 0.875000 0.500000
vn 1.0000 0.0000 0.0000
vn 0.0000 0.0000 -1.0000
vn -1.0000 0.0000 0.0000
vn 0.0000 0.0000 1.0000
vn 0.0000 -1.0000 0.0000
vn 0.0000 0.9487 -0.3160
usemtl Materiais.005
s off
f 49/85/37 51/86/37 52/87/37 50/88/37
f 51/86/38 55/89/38 56/90/38 52/87/38
f 55/89/39 53/91/39 54/92/39 56/90/39
f 53/91/40 49/93/40 50/94/40 54/92/40
f 51/95/41 49/96/41 53/91/41 55/89/41
f 56/90/42 54/92/42 50/97/42 52/98/42
o Cubo.009_Cubo.012
v 13.445798 0.635883 -8.485418
v 13.445798 2.513061 -8.485418
v 13.445798 0.635883 -8.697271
v 13.445798 2.442492 -8.697271
v 13.322025 0.635883 -8.485418
v 13.322025 2.513061 -8.485418
v 13.322025 0.635883 -8.697271
v 13.322025 2.442492 -8.697271
vt 0.375000 0.000000
vt 0.375000 0.250000
vt 0.625000 0.250000
vt 0.625000 0.000000
vt 0.375000 0.500000
vt 0.625000 0.500000
vt 0.375000 0.750000
vt 0.625000 0.750000
vt 0.375000 1.000000
vt 0.625000 1.000000
vt 0.125000 0.500000
vt 0.125000 0.750000
vt 0.875000 0.750000
vt 0.875000 0.500000
vn 1.0000 0.0000 0.0000
vn 0.0000 0.0000 -1.0000
vn -1.0000 0.0000 0.0000
vn 0.0000 0.0000 1.0000
vn 0.0000 -1.0000 0.0000
vn 0.0000 0.9487 -0.3160
usemtl Materiais.007
s off
f 57/99/43 59/100/43 60/101/43 58/102/43
f 59/100/44 63/103/44 64/104/44 60/101/44
f 63/103/45 61/105/45 62/106/45 64/104/45
f 61/105/46 57/107/46 58/108/46 62/106/46
f 59/109/47 57/110/47 61/105/47 63/103/47
f 64/104/48 62/106/48 58/111/48 60/112/48
o Cubo.010_Cubo.013
v 13.445798 2.447007 -0.900450
v 13.445798 2.433561 -1.844683
v 13.445798 2.286773 -0.898168
v 13.445798 2.273327 -1.842402
v 13.322025 2.447007 -0.900450
v 13.322025 2.433561 -1.844683
v 13.322025 2.286773 -0.898168
v 13.322025 2.273327 -1.842402
vt 0.375000 0.000000
vt 0.375000 0.250000
vt 0.625000 0.250000
vt 0.625000 0.000000
vt 0.375000 0.500000
vt 0.625000 0.500000
vt 0.375000 0.750000
vt 0.625000 0.750000
vt 0.375000 1.000000
vt 0.625000 1.000000
vt 0.125000 0.500000
vt 0.125000 0.750000
vt 0.875000 0.750000
vt 0.875000 0.500000
vn 1.0000 -0.0000 0.0000
vn 0.0000 -0.9999 0.0142
vn -1.0000 0.0000 0.0000
vn 0.0000 0.9999 -0.0142
vn 0.0000 0.0142 0.9999
vn 0.0000 -0.0142 -0.9999
usemtl Materiais
s off
f 65/113/49 67/114/49 68/115/49 66/116/49
f 67/114/50 71/117/50 72/118/50 68/115/50
f 71/117/51 69/119/51 70/120/51 72/118/51
f 69/119/52 65/121/52 66/122/52 70/120/52
f 67/123/53 65/124/53 69/119/53 71/117/53
f 72/118/54 70/120/54 66/125/54 68/126/54
o Cubo.005_Cubo.014
v 13.445798 0.793702 -0.900450
v 13.445798 0.780256 -1.844683
v 13.445798 0.633468 -0.898168
v 13.445798 0.620022 -1.842402
v 13.322025 0.793702 -0.900450
v 13.322025 0.780256 -1.844683
v 13.322025 0.633468 -0.898168
v 13.322025 0.620022 -1.842402
vt 0.375000 0.000000
vt 0.375000 0.250000
vt 0.625000 0.250000
vt 0.625000 0.000000
vt 0.375000 0.500000
vt 0.625000 0.500000
vt 0.375000 0.750000
vt 0.625000 0.750000
vt 0.375000 1.000000
vt 0.625000 1.000000
vt 0.125000 0.500000
vt 0.125000 0.750000
vt 0.875000 0.750000
vt 0.875000 0.500000
vn 1.0000 -0.0000 0.0000
vn 0.0000 -0.9999 0.0142
vn -1.0000 0.0000 0.0000
vn 0.0000 0.9999 -0.0142
vn 0.0000 0.0142 0.9999
vn 0.0000 -0.0142 -0.9999
usemtl Materiais.010
s off
f 73/127/55 75/128/55 76/129/55 74/130/55
f 75/128/56 79/131/56 80/132/56 76/129/56
f 79/131/57 77/133/57 78/134/57 80/132/57
f 77/133/58 73/135/58 74/136/58 78/134/58
f 75/137/59 73/138/59 77/133/59 79/131/59
f 80/132/60 78/134/60 74/139/60 76/140/60
o Cubo.011_Cubo.015
v 13.445798 2.447366 -2.679029
v 13.445798 2.433205 -3.673436
v 13.445798 2.287130 -2.676747
v 13.445798 2.272969 -3.671154
v 13.322025 2.447366 -2.679029
v 13.322025 2.433205 -3.673436
v 13.322025 2.287130 -2.676747
v 13.322025 2.272969 -3.671154
vt 0.375000 0.000000
vt 0.375000 0.250000
vt 0.625000 0.250000
vt 0.625000 0.000000
vt 0.375000 0.500000
vt 0.625000 0.500000
vt 0.375000 0.750000
vt 0.625000 0.750000
vt 0.375000 1.000000
vt 0.625000 1.000000
vt 0.125000 0.500000
vt 0.125000 0.750000
vt 0.875000 0.750000
vt 0.875000 0.500000
vn 1.0000 0.0000 0.0000
vn 0.0000 -0.9999 0.0142
vn -1.0000 -0.0000 0.0000
vn 0.0000 0.9999 -0.0142
vn 0.0000 0.0142 0.9999
vn 0.0000 -0.0142 -0.9999
usemtl Materiais.011
s off
f 81/141/61 83/142/61 84/143/61 82/144/61
f 83/142/62 87/145/62 88/146/62 84/143/62
f 87/145/63 85/147/63 86/148/63 88/146/63
f 85/147/64 81/149/64 82/150/64 86/148/64
f 83/151/65 81/152/65 85/147/65 87/145/65
f 88/146/66 86/148/66 82/153/66 84/154/66
o Cubo.012_Cubo.016
v 13.445798 0.798235 -2.677963
v 13.445798 0.796687 -3.672470
v 13.445798 0.637983 -2.677713
v 13.445798 0.636434 -3.672220
v 13.322025 0.798235 -2.677963
v 13.322025 0.796687 -3.672470
v 13.322025 0.637983 -2.677713
v 13.322025 0.636434 -3.672220
vt 0.375000 0.000000
vt 0.375000 0.250000
vt 0.625000 0.250000
vt 0.625000 0.000000
vt 0.375000 0.500000
vt 0.625000 0.500000
vt 0.375000 0.750000
vt 0.625000 0.750000
vt 0.375000 1.000000
vt 0.625000 1.000000
vt 0.125000 0.500000
vt 0.125000 0.750000
vt 0.875000 0.750000
vt 0.875000 0.500000
vn 1.0000 0.0000 0.0000
vn 0.0000 -1.0000 0.0016
vn -1.0000 -0.0000 0.0000
vn 0.0000 1.0000 -0.0016
vn 0.0000 0.0016 1.0000
vn 0.0000 -0.0016 -1.0000
usemtl Materiais.012
s off
f 89/155/67 91/156/67 92/157/67 90/158/67
f 91/156/68 95/159/68 96/160/68 92/157/68
f 95/159/69 93/161/69 94/162/69 96/160/69
f 93/161/70 89/163/70 90/164/70 94/162/70
f 91/165/71 89/166/71 93/161/71 95/159/71
f 96/160/72 94/162/72 90/167/72 92/168/72
o Cubo.013_Cubo.017
v 13.445798 2.445461 -6.745474
v 13.445798 2.435121 -7.880889
v 13.445798 2.285213 -6.744015
v 13.445798 2.274874 -7.879430
v 13.322025 2.445461 -6.745474
v 13.322025 2.435121 -7.880889
v 13.322025 2.285213 -6.744015
v 13.322025 2.274874 -7.879430
vt 0.375000 0.000000
vt 0.375000 0.250000
vt 0.625000 0.250000
vt 0.625000 0.000000
vt 0.375000 0.500000
vt 0.625000 0.500000
vt 0.375000 0.750000
vt 0.625000 0.750000
vt 0.375000 1.000000
vt 0.625000 1.000000
vt 0.125000 0.500000
vt 0.125000 0.750000
vt 0.875000 0.750000
vt 0.875000 0.500000
vn 1.0000 0.0000 0.0000
vn 0.0000 -1.0000 0.0091
vn -1.0000 0.0000 0.0000
vn 0.0000 1.0000 -0.0091
vn 0.0000 0.0091 1.0000
vn 0.0000 -0.0091 -1.0000
usemtl Materiais.013
s off
f 97/169/73 99/170/73 100/171/73 98/172/73
f 99/170/74 103/173/74 104/174/74 100/171/74
f 103/173/75 101/175/75 102/176/75 104/174/75
f 101/175/76 97/177/76 98/178/76 102/176/76
f 99/179/77 97/180/77 101/175/77 103/173/77
f 104/174/78 102/176/78 98/181/78 100/182/78
o Cubo.014_Cubo.018
v 13.445798 2.441280 -8.688781
v 13.445798 2.439306 -9.791774
v 13.445798 2.281028 -8.688495
v 13.445798 2.279054 -9.791488
v 13.322025 2.441280 -8.688781
v 13.322025 2.439306 -9.791774
v 13.322025 2.281028 -8.688495
v 13.322025 2.279054 -9.791488
vt 0.375000 0.000000
vt 0.375000 0.250000
vt 0.625000 0.250000
vt 0.625000 0.000000
vt 0.375000 0.500000
vt 0.625000 0.500000
vt 0.375000 0.750000
vt 0.625000 0.750000
vt 0.375000 1.000000
vt 0.625000 1.000000
vt 0.125000 0.500000
vt 0.125000 0.750000
vt 0.875000 0.750000
vt 0.875000 0.500000
vn 1.0000 -0.0000 0.0000
vn 0.0000 -1.0000 0.0018
vn -1.0000 0.0000 0.0000
vn 0.0000 1.0000 -0.0018
vn 0.0000 0.0018 1.0000
vn 0.0000 -0.0018 -1.0000
usemtl Materiais.014
s off
f 105/183/79 107/184/79 108/185/79 106/186/79
f 107/184/80 111/187/80 112/188/80 108/185/80
f 111/187/81 109/189/81 110/190/81 112/188/81
f 109/189/82 105/191/82 106/192/82 110/190/82
f 107/193/83 105/194/83 109/189/83 111/187/83
f 112/188/84 110/190/84 106/195/84 108/196/84
o Cubo.015_Cubo.019
v 13.445798 0.798330 -6.755593
v 13.445798 0.796591 -7.872550
v 13.445798 0.638078 -6.755343
v 13.445798 0.636339 -7.872301
v 13.322025 0.798330 -6.755593
v 13.322025 0.796591 -7.872550
v 13.322025 0.638078 -6.755343
v 13.322025 0.636339 -7.872301
vt 0.375000 0.000000
vt 0.375000 0.250000
vt 0.625000 0.250000
vt 0.625000 0.000000
vt 0.375000 0.500000
vt 0.625000 0.500000
vt 0.375000 0.750000
vt 0.625000 0.750000
vt 0.375000 1.000000
vt 0.625000 1.000000
vt 0.125000 0.500000
vt 0.125000 0.750000
vt 0.875000 0.750000
vt 0.875000 0.500000
vn 1.0000 0.0000 0.0000
vn 0.0000 -1.0000 0.0016
vn -1.0000 0.0000 0.0000
vn 0.0000 1.0000 -0.0016
vn 0.0000 0.0016 1.0000
vn 0.0000 -0.0016 -1.0000
usemtl Materiais.015
s off
f 113/197/85 115/198/85 116/199/85 114/200/85
f 115/198/86 119/201/86 120/202/86 116/199/86
f 119/201/87 117/203/87 118/204/87 120/202/87
f 117/203/88 113/205/88 114/206/88 118/204/88
f 115/207/89 113/208/89 117/203/89 119/201/89
f 120/202/90 118/204/90 114/209/90 116/210/90
o Cubo.016_Cubo.020
v 13.445798 0.798307 -8.696194
v 13.445798 0.796614 -9.783375
v 13.445798 0.638055 -8.695944
v 13.445798 0.636362 -9.783125
v 13.322025 0.798307 -8.696194
v 13.322025 0.796614 -9.783375
v 13.322025 0.638055 -8.695944
v 13.322025 0.636362 -9.783125
vt 0.375000 0.000000
vt 0.375000 0.250000
vt 0.625000 0.250000
vt 0.625000 0.000000
vt 0.375000 0.500000
vt 0.625000 0.500000
vt 0.375000 0.750000
vt 0.625000 0.750000
vt 0.375000 1.000000
vt 0.625000 1.000000
vt 0.125000 0.500000
vt 0.125000 0.750000
vt 0.875000 0.750000
vt 0.875000 0.500000
vn 1.0000 -0.0000 0.0000
vn 0.0000 -1.0000 0.0016
vn -1.0000 -0.0000 0.0000
vn 0.0000 1.0000 -0.0016
vn 0.0000 0.0016 1.0000
vn 0.0000 -0.0016 -1.0000
usemtl Materiais.016
s off
f 121/211/91 123/212/91 124/213/91 122/214/91
f 123/212/92 127/215/92 128/216/92 124/213/92
f 127/215/93 125/217/93 126/218/93 128/216/93
f 125/217/94 121/219/94 122/220/94 126/218/94
f 123/221/95 121/222/95 125/217/95 127/215/95
f 128/216/96 126/218/96 122/223/96 124/224/96
o Cubo.017_Cubo.021
v 13.445798 -0.214038 -4.238482
v 13.445798 2.521790 -4.238482
v 13.445798 -0.214038 -4.450335
v 13.445798 2.451221 -4.450335
v 13.322025 -0.214038 -4.238482
v 13.322025 2.521790 -4.238482
v 13.322025 -0.214038 -4.450335
v 13.322025 2.451221 -4.450335
vt 0.375000 0.000000
vt 0.375000 0.250000
vt 0.625000 0.250000
vt 0.625000 0.000000
vt 0.375000 0.500000
vt 0.625000 0.500000
vt 0.375000 0.750000
vt 0.625000 0.750000
vt 0.375000 1.000000
vt 0.625000 1.000000
vt 0.125000 0.500000
vt 0.125000 0.750000
vt 0.875000 0.750000
vt 0.875000 0.500000
vn 1.0000 0.0000 0.0000
vn 0.0000 0.0000 -1.0000
vn -1.0000 0.0000 0.0000
vn 0.0000 0.0000 1.0000
vn 0.0000 -1.0000 0.0000
vn 0.0000 0.9487 -0.3160
usemtl Materiais.017
s off
f 129/225/97 131/226/97 132/227/97 130/228/97
f 131/226/98 135/229/98 136/230/98 132/227/98
f 135/229/99 133/231/99 134/232/99 136/230/99
f 133/231/100 129/233/100 130/234/100 134/232/100
f 131/235/101 129/236/101 133/231/101 135/229/101
f 136/230/102 134/232/102 130/237/102 132/238/102
o Cubo.018_Cubo.022
v 13.445798 2.447073 -4.437769
v 13.445798 2.433208 -5.960401
v 13.445798 2.286819 -4.436310
v 13.445798 2.272954 -5.958941
v 13.322025 2.447073 -4.437769
v 13.322025 2.433208 -5.960401
v 13.322025 2.286819 -4.436310
v 13.322025 2.272954 -5.958941
vt 0.375000 0.000000
vt 0.375000 0.250000
vt 0.625000 0.250000
vt 0.625000 0.000000
vt 0.375000 0.500000
vt 0.625000 0.500000
vt 0.375000 0.750000
vt 0.625000 0.750000
vt 0.375000 1.000000
vt 0.625000 1.000000
vt 0.125000 0.500000
vt 0.125000 0.750000
vt 0.875000 0.750000
vt 0.875000 0.500000
vn 1.0000 0.0000 0.0000
vn 0.0000 -1.0000 0.0091
vn -1.0000 0.0000 0.0000
vn 0.0000 1.0000 -0.0091
vn 0.0000 0.0091 1.0000
vn 0.0000 -0.0091 -1.0000
usemtl Materiais.018
s off
f 137/239/103 139/240/103 140/241/103 138/242/103
f 139/240/104 143/243/104 144/244/104 140/241/104
f 143/243/105 141/245/105 142/246/105 144/244/105
f 141/245/106 137/247/106 138/248/106 142/246/106
f 139/249/107 137/250/107 141/245/107 143/243/107
f 144/244/108 142/246/108 138/251/108 140/252/108
o Cubo.019_Cubo.023
v 13.445798 -0.234729 -5.959574
v 13.445798 2.430531 -5.959574
v 13.445798 -0.234729 -6.171426
v 13.445798 2.501099 -6.171426
v 13.322025 -0.234729 -5.959574
v 13.322025 2.430531 -5.959574
v 13.322025 -0.234729 -6.171426
v 13.322025 2.501099 -6.171426
vt 0.375000 0.000000
vt 0.375000 0.250000
vt 0.625000 0.250000
vt 0.625000 0.000000
vt 0.375000 0.500000
vt 0.625000 0.500000
vt 0.375000 0.750000
vt 0.625000 0.750000
vt 0.375000 1.000000
vt 0.625000 1.000000
vt 0.125000 0.500000
vt 0.125000 0.750000
vt 0.875000 0.750000
vt 0.875000 0.500000
vn 1.0000 0.0000 0.0000
vn 0.0000 0.0000 -1.0000
vn -1.0000 0.0000 0.0000
vn 0.0000 0.0000 1.0000
vn 0.0000 -1.0000 0.0000
vn 0.0000 0.9487 0.3160
usemtl Materiais.019
s off
f 145/253/109 147/254/109 148/255/109 146/256/109
f 147/254/110 151/257/110 152/258/110 148/255/110
f 151/257/111 149/259/111 150/260/111 152/258/111
f 149/259/112 145/261/112 146/262/112 150/260/112
f 147/263/113 145/264/113 149/259/113 151/257/113
f 152/258/114 150/260/114 146/265/114 148/266/114
