# Blender v3.2.0 OBJ File: 'divisoria.blend'
# www.blender.org
mtllib primeiro_andar.mtl
o Cubo.003_Cubo.002
v -1.138963 2.357313 0.457410
v 6.881553 2.296420 0.457411
v 6.882920 2.476382 0.457961
v -1.137596 2.537276 0.457959
v 6.883186 2.511262 -10.605097
v -1.137329 2.572156 -10.605098
v 6.881820 2.331299 -10.605647
v -1.138696 2.392192 -10.605648
vt 0.375000 0.000000
vt 0.625000 0.000000
vt 0.625000 0.250000
vt 0.375000 0.250000
vt 0.625000 0.500000
vt 0.375000 0.500000
vt 0.625000 0.750000
vt 0.375000 0.750000
vt 0.625000 1.000000
vt 0.375000 1.000000
vt 0.125000 0.500000
vt 0.125000 0.750000
vt 0.875000 0.500000
vt 0.875000 0.750000
vn -0.0000 -0.0031 1.0000
vn 0.0076 1.0000 0.0032
vn 0.0000 0.0031 -1.0000
vn -0.0076 -1.0000 -0.0032
vn -1.0000 0.0076 -0.0000
vn 1.0000 -0.0076 0.0000
usemtl None
s 1
f 1/1/1 2/2/1 3/3/1 4/4/1
f 4/4/2 3/3/2 5/5/2 6/6/2
f 6/6/3 5/5/3 7/7/3 8/8/3
f 8/8/4 7/7/4 2/9/4 1/10/4
f 4/11/5 6/6/5 8/8/5 1/12/5
f 5/5/6 3/13/6 2/14/6 7/7/6
