# Blender v3.2.0 OBJ File: 'versao_final2.blend'
# www.blender.org
mtllib versao_final2.mtl
o Cubo.002_Cubo.001
v 13.342203 2.218735 0.440200
v 13.342203 3.311244 0.464621
v 13.162246 3.311244 0.464621
v 13.162246 0.576472 0.482936
v 13.162246 0.822045 -2.684272
v 13.162246 0.822045 -1.806016
v 13.162246 2.273679 -1.806016
v 13.162246 2.273679 -2.684272
v 13.162246 2.273682 -10.766102
v 13.162246 3.311246 -10.766103
v 13.342203 3.311246 -10.766103
v 13.342203 2.273682 -10.766103
v 13.162246 3.311244 -0.912048
v 13.162246 2.273679 -0.912049
v 13.162246 -0.226864 -3.684502
v 13.162246 -0.226864 -4.458963
v 13.342203 -0.226864 -4.458963
v 13.342203 -0.226864 -3.684502
v 13.342203 3.311244 -0.912048
v 13.342203 -0.226863 -9.771997
v 13.162246 -0.226862 -9.771997
v 13.162246 -0.226862 -10.766104
v 13.342203 -0.226862 -10.766104
v 13.342203 0.822045 -0.912049
v 13.342203 0.822045 0.464620
v 13.342203 -0.226864 0.464620
v 13.342203 -0.226864 -0.912049
v 13.342203 0.822046 -5.948739
v 13.342203 2.273681 -5.948739
v 13.162246 2.273681 -5.948738
v 13.162246 0.822046 -5.948738
v 13.342203 2.273679 -2.684272
v 13.342203 2.273679 -1.806016
v 13.342203 0.822045 -1.806016
v 13.342203 0.822045 -2.684272
v 13.342203 -0.226864 -5.948739
v 13.162246 -0.226864 -5.948738
v 13.342203 0.822046 -6.771552
v 13.342203 2.273680 -6.771552
v 13.342203 2.273679 -0.912049
v 13.342203 2.273680 -4.458962
v 13.342203 2.273680 -3.684501
v 13.342203 0.822046 -3.684502
v 13.342203 0.822046 -4.458963
v 13.342203 0.822046 -8.709421
v 13.342203 2.273680 -8.709421
v 13.342203 2.273680 -7.818356
v 13.342203 0.822046 -7.818356
v 13.162246 0.822045 0.464620
v 13.162246 -0.226864 0.464620
v 13.162246 0.822047 -10.766102
v 13.342203 0.822047 -10.766103
v 13.342203 2.273681 -9.771996
v 13.342203 0.822047 -9.771996
v 13.162246 0.822045 -0.912049
v 13.162246 -0.226865 -0.912049
v 13.162246 0.822047 -9.771996
v 13.162246 2.273681 -9.771996
v 13.162246 2.273680 -7.818356
v 13.162246 2.273680 -8.709421
v 13.162246 0.822046 -8.709420
v 13.162246 0.822046 -7.818356
v 13.162246 0.822046 -6.771552
v 13.162246 2.273680 -6.771552
v 13.162246 -0.226864 -6.771552
v 13.162246 0.822046 -3.684502
v 13.162246 2.273680 -3.684501
v 13.162246 2.273680 -4.458962
v 13.162246 0.822046 -4.458963
v 13.162246 3.311246 -9.771995
v 13.342203 3.311246 -9.771995
v 13.162246 3.311245 -8.709420
v 13.342203 3.311245 -8.709420
v 13.162246 3.311245 -7.818355
v 13.342203 3.311245 -7.818355
v 13.162246 3.311245 -6.771552
v 13.342203 3.311245 -6.771552
v 13.162246 3.311245 -5.948738
v 13.342203 3.311245 -5.948739
v 13.162246 3.311245 -4.458962
v 13.342203 3.311245 -4.458962
v 13.162246 3.311245 -3.684501
v 13.342203 3.311245 -3.684501
v 13.162246 3.311244 -2.684272
v 13.342203 3.311244 -2.684272
v 13.162246 3.311244 -1.806016
v 13.342203 3.311244 -1.806015
v 13.342203 -0.226864 -6.771552
v 13.162246 -0.226864 -7.818356
v 13.342203 -0.226864 -7.818356
v 13.162246 -0.226864 -8.709421
v 13.342203 -0.226864 -8.709421
v 13.162246 -0.226865 -1.806016
v 13.342203 -0.226864 -1.806016
v 13.162246 -0.226865 -2.684272
v 13.342203 -0.226864 -2.684272
v -7.929103 -0.226865 0.464341
v -7.929103 3.311244 0.464342
v -7.929103 3.311244 0.252152
v -7.929103 -0.226865 0.252151
v 13.158751 3.311244 0.252152
v 13.158751 -0.226865 0.252151
v 13.158751 3.311244 0.464342
v 13.158751 -0.226865 0.464341
v -7.933706 -0.226863 -10.553914
v -7.933706 3.311246 -10.553913
v -7.933706 3.311246 -10.766103
v -7.933706 -0.226863 -10.766104
v 13.166390 3.311246 -10.766103
v 13.166390 -0.226863 -10.766104
v 13.166390 3.311246 -10.553913
v 13.166390 -0.226863 -10.553914
v -8.397917 3.214866 0.464342
v 2.660840 5.107780 0.464344
v 2.630476 5.285168 0.464902
v -8.428281 3.392253 0.464900
v 2.624593 5.319549 -10.765821
v -8.434164 3.426634 -10.765822
v 2.654956 5.142160 -10.766380
v -8.403801 3.249246 -10.766381
v -7.970662 3.280025 0.430576
v 2.617894 3.268802 0.456352
v -8.173281 3.271453 0.430116
v 2.619949 5.190615 0.448974
v 2.512056 5.106094 0.464342
v 13.556546 3.131640 0.464344
v 13.588217 3.308798 0.464902
v 2.543727 5.283253 0.464900
v 13.594357 3.343135 -10.765821
v 2.549868 5.317590 -10.765824
v 13.562686 3.165975 -10.766380
v 2.518196 5.140430 -10.766382
v 13.194927 3.272565 0.445603
v 2.292899 3.270556 0.450675
v 13.403536 3.263817 0.445518
v 2.292544 5.192329 0.448080
v -9.670055 -0.157744 1.567556
v -9.670055 -0.199527 -11.519065
v -9.670055 -0.411728 -11.518387
v -9.670055 -0.369945 1.568234
v 15.167583 -0.411728 -11.518387
v 15.167583 -0.369945 1.568234
v 15.167583 -0.199527 -11.519065
v 15.167583 -0.157744 1.567556
v 13.194927 3.272565 -10.704566
v 2.292899 3.270556 -10.699494
v 13.403536 3.263817 -10.704651
v 2.292544 5.192329 -10.702088
v -7.970662 3.280025 -10.719593
v 2.617894 3.268802 -10.693816
v -8.173281 3.271453 -10.720052
v 2.619949 5.190615 -10.701195
vt 0.500000 0.000000
vt 0.625000 0.000000
vt 0.625000 0.250000
vt 0.500000 0.250000
vt 0.450484 0.320373
vt 0.453088 0.300338
vt 0.550209 0.300582
vt 0.550464 0.320156
vt 0.541667 0.500000
vt 0.625000 0.500000
vt 0.625000 0.750000
vt 0.541667 0.750000
vt 0.625000 0.259259
vt 0.550209 0.280834
vt 0.212846 0.500000
vt 0.234807 0.500000
vt 0.234461 0.750000
vt 0.212569 0.750000
vt 0.865741 0.500000
vt 0.875000 0.500000
vt 0.875000 0.750000
vt 0.865741 0.750000
vt 0.353538 0.750000
vt 0.353540 0.500000
vt 0.375000 0.500000
vt 0.375000 0.750000
vt 0.452314 0.969544
vt 0.437500 1.000000
vt 0.375000 1.000000
vt 0.375000 0.978108
vt 0.463421 0.857086
vt 0.551843 0.857086
vt 0.551106 0.392596
vt 0.463053 0.392648
vt 0.552532 0.930073
vt 0.551370 0.949430
vt 0.452314 0.949309
vt 0.449105 0.930074
vt 0.375000 0.857086
vt 0.375000 0.392701
vt 0.445565 0.838707
vt 0.551430 0.839409
vt 0.551370 0.969544
vt 0.625000 0.990741
vt 0.625000 1.000000
vt 0.500000 1.000000
vt 0.551843 0.890539
vt 0.552533 0.907699
vt 0.449105 0.907265
vt 0.463421 0.890539
vt 0.442779 0.796052
vt 0.549201 0.796052
vt 0.551430 0.815537
vt 0.445565 0.815536
vt 0.437500 0.000000
vt 0.437500 0.250000
vt 0.375000 0.000000
vt 0.375000 0.250000
vt 0.458333 0.500000
vt 0.458333 0.750000
vt 0.549201 0.772004
vt 0.442779 0.772004
vt 0.453475 0.280834
vt 0.375000 0.271961
vt 0.443893 0.477658
vt 0.548087 0.477833
vt 0.550315 0.434300
vt 0.548087 0.454311
vt 0.444450 0.454663
vt 0.446122 0.434301
vt 0.446122 0.411481
vt 0.549758 0.410954
vt 0.375000 0.414161
vt 0.450484 0.342313
vt 0.551153 0.342096
vt 0.551438 0.359807
vt 0.463219 0.359807
vt 0.375000 0.890539
vt 0.375000 0.771417
vt 0.652778 0.500000
vt 0.652778 0.750000
vt 0.680556 0.500000
vt 0.680556 0.750000
vt 0.708333 0.500000
vt 0.708333 0.750000
vt 0.736111 0.500000
vt 0.736111 0.750000
vt 0.763889 0.500000
vt 0.763889 0.750000
vt 0.791667 0.500000
vt 0.791667 0.750000
vt 0.819444 0.500000
vt 0.819444 0.750000
vt 0.847222 0.500000
vt 0.847222 0.750000
vt 0.856481 0.500000
vt 0.856481 0.750000
vt 0.625000 0.268519
vt 0.625000 0.277778
vt 0.625000 0.305556
vt 0.625000 0.333333
vt 0.625000 0.361111
vt 0.625000 0.388889
vt 0.625000 0.416667
vt 0.625000 0.444444
vt 0.625000 0.472222
vt 0.267688 0.750000
vt 0.267701 0.500000
vt 0.289161 0.500000
vt 0.289151 0.750000
vt 0.310620 0.500000
vt 0.310613 0.750000
vt 0.332080 0.500000
vt 0.332075 0.750000
vt 0.125000 0.500000
vt 0.146961 0.500000
vt 0.146892 0.750000
vt 0.125000 0.750000
vt 0.168923 0.500000
vt 0.168784 0.750000
vt 0.190884 0.500000
vt 0.190677 0.750000
vt 0.375000 0.293923
vt 0.375000 0.315884
vt 0.375000 0.359807
vt 0.375000 0.337846
vt 0.375000 0.478540
vt 0.375000 0.435620
vt 0.375000 0.457080
vt 0.375000 0.835669
vt 0.375000 0.792834
vt 0.375000 0.814252
vt 0.375000 0.912431
vt 0.375000 0.934323
vt 0.375000 0.956216
vt 0.625000 0.981481
vt 0.625000 0.972222
vt 0.625000 0.944444
vt 0.625000 0.916667
vt 0.625000 0.777778
vt 0.625000 0.888889
vt 0.625000 0.861111
vt 0.625000 0.833333
vt 0.625000 0.805556
vt 0.375000 0.000000
vt 0.625000 0.000000
vt 0.625000 0.250000
vt 0.375000 0.250000
vt 0.625000 0.500000
vt 0.375000 0.500000
vt 0.625000 0.750000
vt 0.375000 0.750000
vt 0.625000 1.000000
vt 0.375000 1.000000
vt 0.125000 0.500000
vt 0.125000 0.750000
vt 0.875000 0.500000
vt 0.875000 0.750000
vt 0.375000 0.000000
vt 0.625000 0.000000
vt 0.625000 0.250000
vt 0.375000 0.250000
vt 0.625000 0.500000
vt 0.375000 0.500000
vt 0.625000 0.750000
vt 0.375000 0.750000
vt 0.625000 1.000000
vt 0.375000 1.000000
vt 0.125000 0.500000
vt 0.125000 0.750000
vt 0.875000 0.500000
vt 0.875000 0.750000
vt 0.000000 0.000000
vt 0.000000 0.000000
vt 0.000000 0.000000
vt 0.000000 0.000000
vt 0.375000 0.000000
vt 0.625000 0.000000
vt 0.625000 0.250000
vt 0.375000 0.250000
vt 0.625000 0.500000
vt 0.375000 0.500000
vt 0.625000 0.750000
vt 0.375000 0.750000
vt 0.625000 1.000000
vt 0.375000 1.000000
vt 0.125000 0.500000
vt 0.125000 0.750000
vt 0.875000 0.500000
vt 0.875000 0.750000
vt 0.000000 0.000000
vt 0.000000 0.000000
vt 0.000000 0.000000
vt 0.000000 0.000000
vt 0.375000 0.000000
vt 0.625000 0.000000
vt 0.625000 0.250000
vt 0.375000 0.250000
vt 0.625000 0.500000
vt 0.375000 0.500000
vt 0.625000 0.750000
vt 0.375000 0.750000
vt 0.625000 1.000000
vt 0.375000 1.000000
vt 0.125000 0.500000
vt 0.125000 0.750000
vt 0.875000 0.500000
vt 0.875000 0.750000
vt 0.000000 0.000000
vt 0.000000 0.000000
vt 0.000000 0.000000
vt 0.000000 0.000000
vt 0.000000 0.000000
vt 0.000000 0.000000
vt 0.000000 0.000000
vt 0.000000 0.000000
vt 0.375000 0.000000
vt 0.625000 0.000000
vt 0.625000 0.250000
vt 0.375000 0.250000
vt 0.625000 0.500000
vt 0.375000 0.500000
vt 0.625000 0.750000
vt 0.375000 0.750000
vt 0.625000 1.000000
vt 0.375000 1.000000
vt 0.125000 0.500000
vt 0.125000 0.750000
vt 0.875000 0.500000
vt 0.875000 0.750000
vn 0.1239 -0.0013 0.9923
vn 0.1250 -0.0016 0.9922
vn 0.1090 0.0020 0.9940
vn -1.0000 0.0000 0.0000
vn -0.0000 -0.0000 -1.0000
vn 0.0000 -1.0000 0.0000
vn 0.0000 1.0000 0.0000
vn 1.0000 0.0000 0.0000
vn 0.0000 -0.0000 1.0000
vn 0.0471 0.0026 0.9989
vn -0.0024 0.0038 1.0000
vn 0.0005 -0.0031 1.0000
vn -0.1687 0.9857 0.0031
vn -0.0005 0.0031 -1.0000
vn 0.1687 -0.9857 -0.0031
vn -0.9857 -0.1687 -0.0000
vn 0.9857 0.1687 0.0000
vn -0.0005 -0.0014 -1.0000
vn -0.0005 -0.0031 1.0000
vn 0.1760 0.9844 0.0031
vn 0.0005 0.0031 -1.0000
vn -0.1760 -0.9844 -0.0031
vn -0.9844 0.1760 -0.0000
vn 0.9844 -0.1760 0.0000
vn -0.0005 -0.0013 -1.0000
vn 0.0000 -1.0000 0.0032
vn 0.0000 1.0000 -0.0032
vn 0.0000 0.0032 1.0000
vn 0.0000 -0.0032 -1.0000
usemtl None
s 1
f 1/1/1 2/2/2 3/3/2 4/4/3
f 5/5/4 6/6/4 7/7/4 8/8/4
f 9/9/5 10/10/5 11/11/5 12/12/5
f 13/13/4 14/14/4 4/4/4 3/3/4
f 15/15/6 16/16/6 17/17/6 18/18/6
f 13/19/7 3/20/7 2/21/7 19/22/7
f 20/23/6 21/24/6 22/25/6 23/26/6
f 24/27/8 25/28/8 26/29/8 27/30/8
f 28/31/9 29/32/9 30/33/9 31/34/9
f 32/35/8 33/36/8 34/37/8 35/38/8
f 36/39/9 28/31/9 31/34/9 37/40/9
f 28/31/8 38/41/8 39/42/8 29/32/8
f 40/43/8 19/44/8 2/45/8 1/46/8
f 41/47/8 42/48/8 43/49/8 44/50/8
f 45/51/8 46/52/8 47/53/8 48/54/8
f 25/55/10 1/1/1 4/4/3 49/56/10
f 26/57/9 25/55/10 49/56/10 50/58/9
f 24/27/8 40/43/8 1/46/8 25/28/8
f 22/25/5 51/59/5 52/60/5 23/26/5
f 51/59/5 9/9/5 12/12/5 52/60/5
f 52/60/8 12/12/8 53/61/8 54/62/8
f 55/63/4 56/64/4 50/58/4 49/56/4
f 51/59/4 57/65/4 58/66/4 9/9/4
f 59/67/4 60/68/4 61/69/4 62/70/4
f 63/71/4 31/34/4 30/33/4 64/72/4
f 63/71/4 65/73/4 37/40/4 31/34/4
f 49/56/4 4/4/4 14/14/4 55/63/4
f 66/74/4 67/75/4 68/76/4 69/77/4
f 69/77/5 44/50/5 17/78/5 16/16/5
f 41/47/5 44/50/5 69/77/5 68/76/5
f 29/32/6 41/47/6 68/76/6 30/33/6
f 32/35/6 8/8/6 67/75/6 42/48/6
f 42/48/9 67/75/9 66/74/9 43/49/9
f 35/38/5 5/5/5 8/8/5 32/35/5
f 43/49/7 66/74/7 5/5/7 35/38/7
f 24/27/7 34/37/7 6/6/7 55/63/7
f 40/43/5 24/27/5 55/63/5 14/14/5
f 34/37/9 33/36/9 7/7/9 6/6/9
f 33/36/6 40/43/6 14/14/6 7/7/6
f 39/42/6 64/72/6 59/67/6 47/53/6
f 48/54/7 62/70/7 63/71/7 38/41/7
f 38/41/5 63/71/5 64/72/5 39/42/5
f 47/53/9 59/67/9 62/70/9 48/54/9
f 46/52/5 45/51/5 61/69/5 60/68/5
f 54/62/9 53/61/9 58/66/9 57/65/9
f 53/61/6 46/52/6 60/68/6 58/66/6
f 45/51/7 54/62/7 57/65/7 61/69/7
f 54/62/8 20/79/8 23/26/8 52/60/8
f 10/10/7 70/80/7 71/81/7 11/11/7
f 70/80/7 72/82/7 73/83/7 71/81/7
f 72/82/7 74/84/7 75/85/7 73/83/7
f 74/84/7 76/86/7 77/87/7 75/85/7
f 76/86/7 78/88/7 79/89/7 77/87/7
f 78/88/7 80/90/7 81/91/7 79/89/7
f 80/90/7 82/92/7 83/93/7 81/91/7
f 82/92/7 84/94/7 85/95/7 83/93/7
f 84/94/7 86/96/7 87/97/7 85/95/7
f 86/96/7 13/19/7 19/22/7 87/97/7
f 7/7/4 14/14/4 13/13/4 86/98/4
f 8/8/4 7/7/4 86/98/4 84/99/4
f 67/75/4 8/8/4 84/99/4 82/100/4
f 68/76/4 67/75/4 82/100/4 80/101/4
f 30/33/4 68/76/4 80/101/4 78/102/4
f 64/72/4 30/33/4 78/102/4 76/103/4
f 59/67/4 64/72/4 76/103/4 74/104/4
f 60/68/4 59/67/4 74/104/4 72/105/4
f 58/66/4 60/68/4 72/105/4 70/106/4
f 9/9/4 58/66/4 70/106/4 10/10/4
f 36/107/6 37/108/6 65/109/6 88/110/6
f 88/110/6 65/109/6 89/111/6 90/112/6
f 90/112/6 89/111/6 91/113/6 92/114/6
f 92/114/6 91/113/6 21/24/6 20/23/6
f 50/115/6 56/116/6 27/117/6 26/118/6
f 56/116/6 93/119/6 94/120/6 27/117/6
f 93/119/6 95/121/6 96/122/6 94/120/6
f 95/121/6 15/15/6 18/18/6 96/122/6
f 6/6/4 93/123/4 56/64/4 55/63/4
f 5/5/4 95/124/4 93/123/4 6/6/4
f 66/74/4 69/77/4 16/125/4 15/126/4
f 5/5/4 66/74/4 15/126/4 95/124/4
f 57/65/4 51/59/4 22/25/4 21/127/4
f 63/71/4 62/70/4 89/128/4 65/73/4
f 62/70/4 61/69/4 91/129/4 89/128/4
f 61/69/4 57/65/4 21/127/4 91/129/4
f 38/41/8 28/31/8 36/39/8 88/130/8
f 54/62/8 45/51/8 92/131/8 20/79/8
f 45/51/8 48/54/8 90/132/8 92/131/8
f 48/54/8 38/41/8 88/130/8 90/132/8
f 44/50/8 43/49/8 18/133/8 17/78/8
f 43/49/8 35/38/8 96/134/8 18/133/8
f 35/38/8 34/37/8 94/135/8 96/134/8
f 34/37/8 24/27/8 27/30/8 94/135/8
f 33/36/8 87/136/8 19/44/8 40/43/8
f 32/35/8 85/137/8 87/136/8 33/36/8
f 42/48/8 83/138/8 85/137/8 32/35/8
f 41/47/8 81/139/8 83/138/8 42/48/8
f 53/61/8 12/12/8 11/11/8 71/140/8
f 41/47/8 29/32/8 79/141/8 81/139/8
f 29/32/8 39/42/8 77/142/8 79/141/8
f 39/42/8 47/53/8 75/143/8 77/142/8
f 47/53/8 46/52/8 73/144/8 75/143/8
f 46/52/8 53/61/8 71/140/8 73/144/8
f 97/145/4 98/146/4 99/147/4 100/148/4
f 100/148/5 99/147/5 101/149/5 102/150/5
f 102/150/8 101/149/8 103/151/8 104/152/8
f 104/152/9 103/151/9 98/153/9 97/154/9
f 100/155/6 102/150/6 104/152/6 97/156/6
f 101/149/7 99/157/7 98/158/7 103/151/7
f 105/159/4 106/160/4 107/161/4 108/162/4
f 108/162/5 107/161/5 109/163/5 110/164/5
f 110/164/8 109/163/8 111/165/8 112/166/8
f 112/166/9 111/165/9 106/167/9 105/168/9
f 108/169/6 110/164/6 112/166/6 105/170/6
f 109/163/7 107/171/7 106/172/7 111/165/7
usemtl None.003
s off
f 121/173/11 122/174/11 124/175/11 123/176/11
s 1
f 113/177/12 114/178/12 115/179/12 116/180/12
f 116/180/13 115/179/13 117/181/13 118/182/13
f 118/182/14 117/181/14 119/183/14 120/184/14
f 120/184/15 119/183/15 114/185/15 113/186/15
f 116/187/16 118/182/16 120/184/16 113/188/16
f 117/181/17 115/189/17 114/190/17 119/183/17
usemtl None.004
s off
f 133/191/18 134/192/18 136/193/18 135/194/18
s 1
f 125/195/19 126/196/19 127/197/19 128/198/19
f 128/198/20 127/197/20 129/199/20 130/200/20
f 130/200/21 129/199/21 131/201/21 132/202/21
f 132/202/22 131/201/22 126/203/22 125/204/22
f 128/205/23 130/200/23 132/202/23 125/206/23
f 129/199/24 127/207/24 126/208/24 131/201/24
usemtl None.005
s off
f 145/209/25 146/210/25 148/211/25 147/212/25
f 149/213/11 150/214/11 152/215/11 151/216/11
s 1
f 137/217/4 138/218/4 139/219/4 140/220/4
f 140/220/26 139/219/26 141/221/26 142/222/26
f 142/222/8 141/221/8 143/223/8 144/224/8
f 144/224/27 143/223/27 138/225/27 137/226/27
f 140/227/28 142/222/28 144/224/28 137/228/28
f 141/221/29 139/229/29 138/230/29 143/223/29
o Cubo.003_Cubo.002
v -1.340592 1.715679 0.457410
v 8.279935 1.642637 0.457411
v 8.281301 1.822602 0.457961
v -1.339226 1.895644 0.457959
v 8.281569 1.857481 -10.605096
v -1.338959 1.930523 -10.605098
v 8.280202 1.677516 -10.605646
v -1.340325 1.750558 -10.605648
vt 0.375000 0.000000
vt 0.625000 0.000000
vt 0.625000 0.250000
vt 0.375000 0.250000
vt 0.625000 0.500000
vt 0.375000 0.500000
vt 0.625000 0.750000
vt 0.375000 0.750000
vt 0.625000 1.000000
vt 0.375000 1.000000
vt 0.125000 0.500000
vt 0.125000 0.750000
vt 0.875000 0.500000
vt 0.875000 0.750000
vn -0.0000 -0.0031 1.0000
vn 0.0076 1.0000 0.0032
vn 0.0000 0.0031 -1.0000
vn -0.0076 -1.0000 -0.0032
vn -1.0000 0.0076 -0.0000
vn 1.0000 -0.0076 0.0000
usemtl None
s 1
f 153/231/30 154/232/30 155/233/30 156/234/30
f 156/234/31 155/233/31 157/235/31 158/236/31
f 158/236/32 157/235/32 159/237/32 160/238/32
f 160/238/33 159/237/33 154/239/33 153/240/33
f 156/241/34 158/236/34 160/238/34 153/242/34
f 157/235/35 155/243/35 154/244/35 159/237/35
o Cubo.003_Cubo.001
v -7.853908 -0.226865 0.464342
v -7.853908 3.311244 0.464343
v -8.033859 3.311244 0.464901
v -8.033859 -0.226865 0.464900
v -8.068737 3.311246 -10.765822
v -8.068737 -0.226863 -10.765823
v -7.888785 3.311246 -10.766381
v -7.888785 -0.226863 -10.766382
vt 0.375000 0.000000
vt 0.625000 0.000000
vt 0.625000 0.250000
vt 0.375000 0.250000
vt 0.625000 0.500000
vt 0.375000 0.500000
vt 0.625000 0.750000
vt 0.375000 0.750000
vt 0.625000 1.000000
vt 0.375000 1.000000
vt 0.125000 0.500000
vt 0.125000 0.750000
vt 0.875000 0.500000
vt 0.875000 0.750000
vn 0.0031 -0.0000 1.0000
vn -1.0000 -0.0000 0.0031
vn -0.0031 0.0000 -1.0000
vn 1.0000 -0.0000 -0.0031
vn -0.0000 -1.0000 -0.0000
vn 0.0000 1.0000 0.0000
usemtl None.001
s 1
f 161/245/36 162/246/36 163/247/36 164/248/36
f 164/248/37 163/247/37 165/249/37 166/250/37
f 166/250/38 165/249/38 167/251/38 168/252/38
f 168/252/39 167/251/39 162/253/39 161/254/39
f 164/255/40 166/250/40 168/252/40 161/256/40
f 165/249/41 163/257/41 162/258/41 167/251/41
o Cubo.001_Cubo.001
v -0.703687 -0.121515 -4.301789
v -0.703687 1.773586 -4.301789
v -0.703687 1.773586 -4.513978
v -0.703687 -0.121515 -4.513979
v 7.879185 1.773586 -4.513978
v 7.879185 -0.121515 -4.513979
v 7.879185 1.773586 -4.301789
v 7.879185 -0.121515 -4.301789
vt 0.375000 0.000000
vt 0.625000 0.000000
vt 0.625000 0.250000
vt 0.375000 0.250000
vt 0.625000 0.500000
vt 0.375000 0.500000
vt 0.625000 0.750000
vt 0.375000 0.750000
vt 0.625000 1.000000
vt 0.375000 1.000000
vt 0.125000 0.500000
vt 0.125000 0.750000
vt 0.875000 0.500000
vt 0.875000 0.750000
vn -1.0000 -0.0000 0.0000
vn 0.0000 0.0000 -1.0000
vn 1.0000 -0.0000 0.0000
vn 0.0000 0.0000 1.0000
vn 0.0000 -1.0000 -0.0000
vn 0.0000 1.0000 0.0000
usemtl None.002
s 1
f 169/259/42 170/260/42 171/261/42 172/262/42
f 172/262/43 171/261/43 173/263/43 174/264/43
f 174/264/44 173/263/44 175/265/44 176/266/44
f 176/266/45 175/265/45 170/267/45 169/268/45
f 172/269/46 174/264/46 176/266/46 169/270/46
f 173/263/47 171/271/47 170/272/47 175/265/47
